<?xml version="1.0" encoding="UTF-8"?>
<svg xmlns="http://www.w3.org/2000/svg" version="1.1" xmlns:xlink="http://www.w3.org/1999/xlink" viewBox="0 0 5000 2700">
  <defs>
    <clipPath id="clippath">
      <path d="M1620.272,2116.123c-520,180.001-1009.999,583.877-520-69.999C1590.269,1392.247,0,1256.123,0,1256.123v1443.877h3070.272s-929.998-763.876-1450-583.877" style="clip-rule: evenodd; fill: none;"/>
    </clipPath>
    <linearGradient id="linear-gradient" x1="59.996" y1="1328.552" x2="3078.898" y2="2657.785" gradientUnits="userSpaceOnUse">
      <stop offset="0" stop-color="#00e7ae"/>
      <stop offset="1" stop-color="#fa06e2"/>
    </linearGradient>
    <clipPath id="clippath-1">
      <path d="M1820.81,2043.859c-584.362,202.278-1135.007,656.141-584.362-78.664C1787.096,1230.389,0,1077.42,0,1077.42v1622.58h3450.273s-1045.104-858.42-1629.462-656.141" style="clip-rule: evenodd; fill: none;"/>
    </clipPath>
    <linearGradient id="linear-gradient-2" x1="67.364" y1="1158.741" x2="3460.02" y2="2652.634" xlink:href="#linear-gradient"/>
    <clipPath id="clippath-2">
      <path d="M2121.614,1935.461c-680.897,235.695-1322.513,764.539-680.897-91.657C2082.33,987.602,0,809.361,0,809.361v1890.639h4020.274s-1217.76-1000.235-1898.66-764.539" style="clip-rule: evenodd; fill: none;"/>
    </clipPath>
    <linearGradient id="linear-gradient-3" x1="78.481" y1="904.161" x2="4031.579" y2="2644.733" xlink:href="#linear-gradient"/>
    <clipPath id="clippath-3">
      <path d="M2427.696,1825.162c-779.13,269.701-1513.31,874.838-779.13-104.884C2382.746,740.559,0,536.602,0,536.602v2163.398h4600.274s-1393.444-1144.537-2172.579-874.838" style="clip-rule: evenodd; fill: none;"/>
    </clipPath>
    <linearGradient id="linear-gradient-4" x1="89.878" y1="645.079" x2="4613.253" y2="2636.813" xlink:href="#linear-gradient"/>
  </defs>
  <!-- Generator: Adobe Illustrator 28.7.7, SVG Export Plug-In . SVG Version: 1.2.0 Build 194)  -->
  <g>
    <g id="Layer_1">
      <g>
        <rect x="0" width="5000" height="2700" style="fill: #041620;"/>
        <g style="clip-path: url(#clippath);">
          <rect x="0" y="1256.123" width="3070.272" height="1443.877" style="fill: url(#linear-gradient);"/>
        </g>
        <g style="clip-path: url(#clippath-1);">
          <rect x="0" y="1077.42" width="3450.273" height="1622.58" style="fill: url(#linear-gradient-2); opacity: .21;"/>
        </g>
        <g style="clip-path: url(#clippath-2);">
          <rect x="0" y="809.361" width="4020.274" height="1890.639" style="fill: url(#linear-gradient-3); opacity: .21;"/>
        </g>
        <g style="clip-path: url(#clippath-3);">
          <rect x="0" y="536.602" width="4600.274" height="2163.398" style="fill: url(#linear-gradient-4); opacity: .21;"/>
        </g>
      </g>
    </g>
  </g>
</svg>