<?xml version="1.0" encoding="utf-8"?>
<!-- Generator: Adobe Illustrator 27.5.0, SVG Export Plug-In . SVG Version: 6.00 Build 0)  -->
<svg version="1.1" id="Layer_1" xmlns="http://www.w3.org/2000/svg" xmlns:xlink="http://www.w3.org/1999/xlink" x="0px" y="0px"
	 viewBox="0 0 7000 4081" style="enable-background:new 0 0 7000 4081;" xml:space="preserve">
<g>
	<rect x="0" style="fill-rule:evenodd;clip-rule:evenodd;fill:#102770;" width="7000" height="4081"/>
	<g>
		<defs>
			<path id="SVGID_1_" d="M0.001,4081h1626.233c154.389-175.83,280.808-382.971,280.808-731.644
				c0-216.109-60.68-418.05-165.933-589.709c-40.21-40.263-74.04-86.9-99.841-138.263c-176.2-350.759,77.15-775.061,478.537-775.061
				c316.182,0,535.087,318.404,1075.212,318.404c1085.236,0,1967.524-1307.338,1096.01-2161.579H1742.065L1059.218,0H17.863
				L0.001,1913.968V4081z"/>
		</defs>
		<clipPath id="SVGID_00000154393138856179046650000008216276164417206937_">
			<use xlink:href="#SVGID_1_"  style="overflow:visible;"/>
		</clipPath>
		
			<linearGradient id="SVGID_00000059273903910318803300000016742474161548286373_" gradientUnits="userSpaceOnUse" x1="1664.8622" y1="851.4659" x2="3972.2524" y2="3845.2898">
			<stop  offset="0" style="stop-color:#003780"/>
			<stop  offset="1" style="stop-color:#D110B7"/>
		</linearGradient>
		
			<rect x="0.001" style="clip-path:url(#SVGID_00000154393138856179046650000008216276164417206937_);fill:url(#SVGID_00000059273903910318803300000016742474161548286373_);" width="5162.54" height="4081"/>
	</g>
	<g>
		<defs>
			<path id="SVGID_00000178888685263329724190000015272040490238245767_" d="M478.588,3740.168
				c0-694.635,646.824-665.1,646.824-1359.716c0-167.619-47.065-324.247-128.701-457.389
				c-31.187-31.228-57.426-67.399-77.438-107.237c-136.663-272.054,59.839-601.149,371.16-601.149
				c245.235,0,415.021,246.96,833.95,246.96c763.787,0,1296.838-745.387,1069.341-1461.637H1055.042H0v1540.061V3220.84V4081
				h547.344C503.069,3976.231,478.588,3861.058,478.588,3740.168"/>
		</defs>
		<clipPath id="SVGID_00000176759288707236781790000011427166712773190063_">
			<use xlink:href="#SVGID_00000178888685263329724190000015272040490238245767_"  style="overflow:visible;"/>
		</clipPath>
		
			<linearGradient id="SVGID_00000128477525707374740970000015013557969153921921_" gradientUnits="userSpaceOnUse" x1="354.6697" y1="684.5591" x2="2279.7134" y2="2609.6028">
			<stop  offset="0" style="stop-color:#003780"/>
			<stop  offset="1" style="stop-color:#D110B7"/>
		</linearGradient>
		
			<rect x="0" style="clip-path:url(#SVGID_00000176759288707236781790000011427166712773190063_);fill:url(#SVGID_00000128477525707374740970000015013557969153921921_);" width="3421.221" height="4081"/>
	</g>
	<g>
		<defs>
			<path id="SVGID_00000018215119352808503150000003409903727179574709_" d="M2886.823,0H1055.042H0v1540.061v1377.127
				c217.121-257.336,510.882-428.863,510.882-929.274c0-191.524-53.777-370.489-147.057-522.619
				c-35.635-35.683-65.616-77.014-88.482-122.534c-156.155-310.854,68.373-686.883,424.096-686.883
				c280.211,0,474.212,282.18,952.889,282.18C2259.229,938.057,2738.507,526.135,2886.823,0"/>
		</defs>
		<clipPath id="SVGID_00000031183719827247867260000003734423502363989160_">
			<use xlink:href="#SVGID_00000018215119352808503150000003409903727179574709_"  style="overflow:visible;"/>
		</clipPath>
		
			<linearGradient id="SVGID_00000133488989660237475290000013145993275558184098_" gradientUnits="userSpaceOnUse" x1="-588.5816" y1="-784.9012" x2="1913.8107" y2="1977.9551">
			<stop  offset="0" style="stop-color:#003780"/>
			<stop  offset="1" style="stop-color:#D110B7"/>
		</linearGradient>
		
			<rect x="0" style="clip-path:url(#SVGID_00000031183719827247867260000003734423502363989160_);fill:url(#SVGID_00000133488989660237475290000013145993275558184098_);" width="2886.823" height="2917.188"/>
	</g>
	<g>
		<defs>
			<path id="SVGID_00000060731337514453037280000006851153480409177755_" d="M2792.614,0H1055.042H0v1540.061v1096.6
				c169.269-181.712,317.299-387.197,317.299-758.412c0-209.165-58.73-404.614-160.601-570.756
				c-38.917-38.971-71.66-84.106-96.632-133.822c-170.537-339.483,74.67-750.148,463.158-750.148
				c306.019,0,517.889,308.17,1040.656,308.17C2108.849,731.693,2559.537,427.533,2792.614,0"/>
		</defs>
		<clipPath id="SVGID_00000002352074454826931800000003040682891390579130_">
			<use xlink:href="#SVGID_00000060731337514453037280000006851153480409177755_"  style="overflow:visible;"/>
		</clipPath>
		
			<linearGradient id="SVGID_00000093162999192973130390000008183914187090868357_" gradientUnits="userSpaceOnUse" x1="-2232.3455" y1="-2941.2349" x2="1895.4624" y2="1979.1731">
			<stop  offset="0" style="stop-color:#003780"/>
			<stop  offset="1" style="stop-color:#D110B7"/>
		</linearGradient>
		
			<rect x="-110.472" style="clip-path:url(#SVGID_00000002352074454826931800000003040682891390579130_);fill:url(#SVGID_00000093162999192973130390000008183914187090868357_);" width="2903.085" height="2636.661"/>
	</g>
</g>
</svg>
