<?xml version="1.0" encoding="utf-8"?>
<!-- Generator: Adobe Illustrator 27.5.0, SVG Export Plug-In . SVG Version: 6.00 Build 0)  -->
<svg version="1.1" id="Layer_1" xmlns:xodm="http://www.corel.com/coreldraw/odm/2003"
	 xmlns="http://www.w3.org/2000/svg" xmlns:xlink="http://www.w3.org/1999/xlink" x="0px" y="0px" viewBox="0 0 9000 6000"
	 style="enable-background:new 0 0 9000 6000;" xml:space="preserve">
<g id="Layer_x5F_1">
	<g id="_1771117098480">
		
			<linearGradient id="SVGID_1_" gradientUnits="userSpaceOnUse" x1="4500" y1="63.392" x2="4500" y2="6002" gradientTransform="matrix(1 0 0 -1 0 6002)">
			<stop  offset="0" style="stop-color:#000000"/>
			<stop  offset="1" style="stop-color:#004E59"/>
		</linearGradient>
		<polygon style="fill:url(#SVGID_1_);" points="9000,0 9000,6000 0,6000 0,0 		"/>
		
			<linearGradient id="SVGID_00000137115486714726972610000010017779494697564344_" gradientUnits="userSpaceOnUse" x1="1708.2097" y1="700.3514" x2="-768.2629" y2="3156.2493" gradientTransform="matrix(1 0 0 -1 0 6002)">
			<stop  offset="0" style="stop-color:#000000"/>
			<stop  offset="1" style="stop-color:#39D5FF"/>
		</linearGradient>
		<path style="fill:url(#SVGID_00000137115486714726972610000010017779494697564344_);" d="M2268.42,6000H0V2270.32
			c5.26-0.03,10.48-0.2,15.75-0.2c1405.55,0,2544.97,1139.43,2544.97,2544.97C2560.72,5242.97,2454.97,5646.09,2268.42,6000z"/>
		
			<linearGradient id="SVGID_00000089553361742993865580000005088851384621961366_" gradientUnits="userSpaceOnUse" x1="8591.0391" y1="1147.6163" x2="6114.5635" y2="3603.5171" gradientTransform="matrix(1 0 0 -1 0 6002)">
			<stop  offset="0" style="stop-color:#000000"/>
			<stop  offset="1" style="stop-color:#39D5FF"/>
		</linearGradient>
		<path style="fill:url(#SVGID_00000089553361742993865580000005088851384621961366_);" d="M6731.58,6000H9000V2270.32
			c-5.26-0.03-10.48-0.2-15.75-0.2c-1405.55,0-2544.97,1139.43-2544.97,2544.97C6439.28,5242.97,6545.03,5646.09,6731.58,6000z"/>
		<path style="fill-opacity:0.1098;" d="M2268.42,6000H0v-971.39c565.14-704.99,1305.4-1259.26,2149.49-1600.87
			c260.01,399.08,411.23,875.53,411.23,1387.35C2560.72,5242.97,2454.97,5646.09,2268.42,6000z"/>
		<path style="fill-opacity:0.1098;" d="M6731.58,6000H9000v-971.39c-565.14-704.99-1305.4-1259.26-2149.49-1600.87
			c-260.01,399.08-411.23,875.53-411.23,1387.35C6439.28,5242.97,6545.03,5646.09,6731.58,6000L6731.58,6000z"/>
		
			<linearGradient id="SVGID_00000006682484114029566470000015218774403057293969_" gradientUnits="userSpaceOnUse" x1="4500.0005" y1="-280.0705" x2="4500.0005" y2="3284.9548" gradientTransform="matrix(1 0 0 -1 0 6002)">
			<stop  offset="0" style="stop-color:#000000"/>
			<stop  offset="1" style="stop-color:#39D5FF"/>
		</linearGradient>
		<path style="fill:url(#SVGID_00000006682484114029566470000015218774403057293969_);" d="M8419.44,6000H580.56
			C1072.921,4299.9,2641.21,3056.86,4500,3056.86S7927.081,4299.9,8419.44,6000z"/>
		<defs>
			<filter id="Adobe_OpacityMaskFilter" filterUnits="userSpaceOnUse" x="580.561" y="3056.86" width="7838.88" height="2943.14">
				<feColorMatrix  type="matrix" values="1 0 0 0 0  0 1 0 0 0  0 0 1 0 0  0 0 0 1 0"/>
			</filter>
		</defs>
		<mask maskUnits="userSpaceOnUse" x="580.561" y="3056.86" width="7838.88" height="2943.14" id="id0">
			<defs>
				
					<filter id="Adobe_OpacityMaskFilter_00000055665052274129842080000007294063837410207922_" filterUnits="userSpaceOnUse" x="579.52" y="3055.82" width="7840.96" height="2945.22">
					<feFlood  style="flood-color:white;flood-opacity:1" result="back"/>
					<feBlend  in="SourceGraphic" in2="back" mode="normal"/>
				</filter>
			</defs>
			
				<mask maskUnits="userSpaceOnUse" x="579.52" y="3055.82" width="7840.96" height="2945.22" id="id0" style="filter:url(#Adobe_OpacityMaskFilter);">
				<g style="filter:url(#Adobe_OpacityMaskFilter_00000055665052274129842080000007294063837410207922_);">
					<defs>
						
							<filter id="Adobe_OpacityMaskFilter_00000005239327654053764800000007382275574643947428_" filterUnits="userSpaceOnUse" x="579.52" y="3055.82" width="7840.96" height="2945.22">
							<feFlood  style="flood-color:white;flood-opacity:1" result="back"/>
							<feBlend  in="SourceGraphic" in2="back" mode="normal"/>
						</filter>
					</defs>
					<mask maskUnits="userSpaceOnUse" x="579.52" y="3055.82" width="7840.96" height="2945.22" id="id0">
						<g style="filter:url(#Adobe_OpacityMaskFilter_00000005239327654053764800000007382275574643947428_);">
						</g>
					</mask>
					
						<linearGradient id="SVGID_00000060743740367179437280000011670014765276019084_" gradientUnits="userSpaceOnUse" x1="-1411.8351" y1="5874.3887" x2="6648.2354" y2="-125.5941" gradientTransform="matrix(1 0 0 -1 0 6002)">
						<stop  offset="0" style="stop-color:#FFFFFF"/>
						<stop  offset="1" style="stop-color:#000000"/>
					</linearGradient>
					
						<rect x="579.52" y="3055.82" style="mask:url(#id0);fill:url(#SVGID_00000060743740367179437280000011670014765276019084_);" width="7840.96" height="2945.22"/>
				</g>
			</mask>
			
				<linearGradient id="SVGID_00000005980580040486587550000007877516504857334697_" gradientUnits="userSpaceOnUse" x1="-1411.8351" y1="5874.3887" x2="6648.2354" y2="-125.5941" gradientTransform="matrix(1 0 0 -1 0 6002)">
				<stop  offset="0" style="stop-color:#FFFFFF"/>
				<stop  offset="1" style="stop-color:#FFFFFF"/>
			</linearGradient>
			
				<rect x="579.52" y="3055.82" style="fill:url(#SVGID_00000005980580040486587550000007877516504857334697_);" width="7840.96" height="2945.22"/>
		</mask>
		<path style="fill:#B6FFFF;" d="M8419.44,6000h-1530.22c-467.56-1072.87-1471.04-1880.01-2716.23-2039.84
			c-1553.93-199.47-2998.39,671.41-3592.43,2039.84c492.36-1700.1,2060.65-2943.14,3919.44-2943.14S7927.081,4299.9,8419.44,6000
			L8419.44,6000z"/>
		<defs>
			
				<filter id="Adobe_OpacityMaskFilter_00000093154716326907915730000011732110163278880138_" filterUnits="userSpaceOnUse" x="0" y="2270.12" width="2303.19" height="1652.5">
				<feColorMatrix  type="matrix" values="1 0 0 0 0  0 1 0 0 0  0 0 1 0 0  0 0 0 1 0"/>
			</filter>
		</defs>
		<mask maskUnits="userSpaceOnUse" x="0" y="2270.12" width="2303.19" height="1652.5" id="id2">
			<defs>
				
					<filter id="Adobe_OpacityMaskFilter_00000096748916869976485500000017490681814758480308_" filterUnits="userSpaceOnUse" x="-1.04" y="2269.08" width="2305.27" height="1654.58">
					<feFlood  style="flood-color:white;flood-opacity:1" result="back"/>
					<feBlend  in="SourceGraphic" in2="back" mode="normal"/>
				</filter>
			</defs>
			
				<mask maskUnits="userSpaceOnUse" x="-1.04" y="2269.08" width="2305.27" height="1654.58" id="id2" style="filter:url(#Adobe_OpacityMaskFilter_00000093154716326907915730000011732110163278880138_);">
				<g style="filter:url(#Adobe_OpacityMaskFilter_00000096748916869976485500000017490681814758480308_);">
					<defs>
						
							<filter id="Adobe_OpacityMaskFilter_00000103975224010184204030000018166434895283364483_" filterUnits="userSpaceOnUse" x="-1.04" y="2269.08" width="2305.27" height="1654.58">
							<feFlood  style="flood-color:white;flood-opacity:1" result="back"/>
							<feBlend  in="SourceGraphic" in2="back" mode="normal"/>
						</filter>
					</defs>
					<mask maskUnits="userSpaceOnUse" x="-1.04" y="2269.08" width="2305.27" height="1654.58" id="id2">
						<g style="filter:url(#Adobe_OpacityMaskFilter_00000103975224010184204030000018166434895283364483_);">
						</g>
					</mask>
					
						<linearGradient id="SVGID_00000007400600433736861640000017815162617956717696_" gradientUnits="userSpaceOnUse" x1="-1299.0254" y1="4951.0864" x2="2050.3301" y2="2155.4836" gradientTransform="matrix(1 0 0 -1 0 6002)">
						<stop  offset="0" style="stop-color:#FFFFFF"/>
						<stop  offset="1" style="stop-color:#000000"/>
					</linearGradient>
					
						<rect x="-1.04" y="2269.08" style="mask:url(#id2);fill:url(#SVGID_00000007400600433736861640000017815162617956717696_);" width="2305.27" height="1654.58"/>
				</g>
			</mask>
			
				<linearGradient id="SVGID_00000073698306941024892130000013825859386069966238_" gradientUnits="userSpaceOnUse" x1="-1299.0254" y1="4951.0864" x2="2050.3301" y2="2155.4836" gradientTransform="matrix(1 0 0 -1 0 6002)">
				<stop  offset="0" style="stop-color:#FFFFFF"/>
				<stop  offset="1" style="stop-color:#FFFFFF"/>
			</linearGradient>
			
				<rect x="-1.04" y="2269.08" style="fill:url(#SVGID_00000073698306941024892130000013825859386069966238_);" width="2305.27" height="1654.58"/>
		</mask>
		<path style="fill:#B6FFFF;" d="M0,2270.32v907.03c741.98-53.12,1468.89,224.43,1986.82,745.27
			c101.69-79.63,207.26-154.54,316.37-224.4c-413.69-845.68-1282.55-1428.1-2287.44-1428.1C10.48,2270.12,5.26,2270.29,0,2270.32z"
			/>
		<defs>
			
				<filter id="Adobe_OpacityMaskFilter_00000121280321999974632030000010583861947214373013_" filterUnits="userSpaceOnUse" x="6696.81" y="2270.12" width="2303.19" height="1652.5">
				<feColorMatrix  type="matrix" values="1 0 0 0 0  0 1 0 0 0  0 0 1 0 0  0 0 0 1 0"/>
			</filter>
		</defs>
		<mask maskUnits="userSpaceOnUse" x="6696.81" y="2270.12" width="2303.19" height="1652.5" id="id4">
			<defs>
				
					<filter id="Adobe_OpacityMaskFilter_00000047037981454302652540000000106086247198961029_" filterUnits="userSpaceOnUse" x="6695.77" y="2269.08" width="2305.27" height="1654.58">
					<feFlood  style="flood-color:white;flood-opacity:1" result="back"/>
					<feBlend  in="SourceGraphic" in2="back" mode="normal"/>
				</filter>
			</defs>
			
				<mask maskUnits="userSpaceOnUse" x="6695.77" y="2269.08" width="2305.27" height="1654.58" id="id4" style="filter:url(#Adobe_OpacityMaskFilter_00000121280321999974632030000010583861947214373013_);">
				<g style="filter:url(#Adobe_OpacityMaskFilter_00000047037981454302652540000000106086247198961029_);">
					<defs>
						
							<filter id="Adobe_OpacityMaskFilter_00000145047544646558495790000010696496981166208691_" filterUnits="userSpaceOnUse" x="6695.77" y="2269.08" width="2305.27" height="1654.58">
							<feFlood  style="flood-color:white;flood-opacity:1" result="back"/>
							<feBlend  in="SourceGraphic" in2="back" mode="normal"/>
						</filter>
					</defs>
					<mask maskUnits="userSpaceOnUse" x="6695.77" y="2269.08" width="2305.27" height="1654.58" id="id4">
						<g style="filter:url(#Adobe_OpacityMaskFilter_00000145047544646558495790000010696496981166208691_);">
						</g>
					</mask>
					
						<linearGradient id="SVGID_00000054256676787463695000000009245032630227657881_" gradientUnits="userSpaceOnUse" x1="10299.0254" y1="4951.0864" x2="6949.6699" y2="2155.4836" gradientTransform="matrix(1 0 0 -1 0 6002)">
						<stop  offset="0" style="stop-color:#FFFFFF"/>
						<stop  offset="1" style="stop-color:#000000"/>
					</linearGradient>
					
						<rect x="6695.77" y="2269.08" style="mask:url(#id4);fill:url(#SVGID_00000054256676787463695000000009245032630227657881_);" width="2305.27" height="1654.58"/>
				</g>
			</mask>
			
				<linearGradient id="SVGID_00000175314204023661272020000002841386192205496505_" gradientUnits="userSpaceOnUse" x1="10299.0254" y1="4951.0864" x2="6949.6699" y2="2155.4836" gradientTransform="matrix(1 0 0 -1 0 6002)">
				<stop  offset="0" style="stop-color:#FFFFFF"/>
				<stop  offset="1" style="stop-color:#FFFFFF"/>
			</linearGradient>
			
				<rect x="6695.77" y="2269.08" style="fill:url(#SVGID_00000175314204023661272020000002841386192205496505_);" width="2305.27" height="1654.58"/>
		</mask>
		<path style="fill:#B6FFFF;" d="M9000,2270.32v907.03c-741.98-53.12-1468.89,224.43-1986.82,745.27
			c-101.69-79.63-207.26-154.54-316.37-224.4c413.69-845.68,1282.55-1428.1,2287.44-1428.1
			C8989.52,2270.12,8994.74,2270.29,9000,2270.32z"/>
		<defs>
			
				<filter id="Adobe_OpacityMaskFilter_00000035491661339861812300000017075835765868256392_" filterUnits="userSpaceOnUse" x="580.56" y="3056.86" width="7838.88" height="2943.14">
				<feColorMatrix  type="matrix" values="1 0 0 0 0  0 1 0 0 0  0 0 1 0 0  0 0 0 1 0"/>
			</filter>
		</defs>
		<mask maskUnits="userSpaceOnUse" x="580.56" y="3056.86" width="7838.88" height="2943.14" id="id6">
			<defs>
				
					<filter id="Adobe_OpacityMaskFilter_00000087372914280356363260000006401118417087408314_" filterUnits="userSpaceOnUse" x="579.52" y="3055.82" width="7840.96" height="2945.22">
					<feFlood  style="flood-color:white;flood-opacity:1" result="back"/>
					<feBlend  in="SourceGraphic" in2="back" mode="normal"/>
				</filter>
			</defs>
			
				<mask maskUnits="userSpaceOnUse" x="579.52" y="3055.82" width="7840.96" height="2945.22" id="id6" style="filter:url(#Adobe_OpacityMaskFilter_00000035491661339861812300000017075835765868256392_);">
				<g style="filter:url(#Adobe_OpacityMaskFilter_00000087372914280356363260000006401118417087408314_);">
					<defs>
						
							<filter id="Adobe_OpacityMaskFilter_00000142877438680302346670000001457243710975989660_" filterUnits="userSpaceOnUse" x="579.52" y="3055.82" width="7840.96" height="2945.22">
							<feFlood  style="flood-color:white;flood-opacity:1" result="back"/>
							<feBlend  in="SourceGraphic" in2="back" mode="normal"/>
						</filter>
					</defs>
					<mask maskUnits="userSpaceOnUse" x="579.52" y="3055.82" width="7840.96" height="2945.22" id="id6">
						<g style="filter:url(#Adobe_OpacityMaskFilter_00000142877438680302346670000001457243710975989660_);">
						</g>
					</mask>
					
						<linearGradient id="SVGID_00000166640188945317259150000012933635178241473966_" gradientUnits="userSpaceOnUse" x1="7513.1953" y1="5124.1797" x2="2885.0747" y2="-482.9786" gradientTransform="matrix(1 0 0 -1 0 6002)">
						<stop  offset="0" style="stop-color:#FFFFFF"/>
						<stop  offset="1" style="stop-color:#000000"/>
					</linearGradient>
					
						<rect x="579.52" y="3055.82" style="mask:url(#id6);fill:url(#SVGID_00000166640188945317259150000012933635178241473966_);" width="7840.96" height="2945.22"/>
				</g>
			</mask>
			
				<linearGradient id="SVGID_00000131363416582588764310000010514003227339816834_" gradientUnits="userSpaceOnUse" x1="7513.1953" y1="5124.1797" x2="2885.0747" y2="-482.9786" gradientTransform="matrix(1 0 0 -1 0 6002)">
				<stop  offset="0" style="stop-color:#FFFFFF"/>
				<stop  offset="1" style="stop-color:#FFFFFF"/>
			</linearGradient>
			
				<rect x="579.52" y="3055.82" style="fill:url(#SVGID_00000131363416582588764310000010514003227339816834_);" width="7840.96" height="2945.22"/>
		</mask>
		<path style="fill:#B6FFFF;" d="M1986.82,3922.62C1321.35,4443.71,821.8,5166.99,580.56,6000h1687.86h29.06
			c446.72-1084.94,1457.76-1897.69,2706.37-2032.25c1498.57-161.5,2870.94,704.39,3415.59,2032.25
			C7927.081,4299.9,6358.791,3056.86,4500,3056.86c-808.85,0-1562.69,235.38-2196.81,641.36c-0.04,0.03-0.07,0.05-0.11,0.07
			C2194.01,3768.13,2088.48,3843.02,1986.82,3922.62L1986.82,3922.62z"/>
	</g>
</g>
</svg>
