<?xml version="1.0" encoding="utf-8"?>
<!-- Generator: Adobe Illustrator 27.5.0, SVG Export Plug-In . SVG Version: 6.00 Build 0)  -->
<svg version="1.1" id="Layer_1" xmlns="http://www.w3.org/2000/svg" xmlns:xlink="http://www.w3.org/1999/xlink" x="0px" y="0px"
	 viewBox="0 0 6000 3000" style="enable-background:new 0 0 6000 3000;" xml:space="preserve">
<g>
	<rect style="fill-rule:evenodd;clip-rule:evenodd;fill:#002223;" width="6000" height="3000"/>
	<g>
		<defs>
			<path id="SVGID_1_" d="M1081.668,2496.115c0,0-721.158-814.796-55.269-2496.115H0v1511.039
				C174.122,1791.519,497.03,2168.207,1081.668,2496.115"/>
		</defs>
		<clipPath id="SVGID_00000031929566286786555040000001460529409527623347_">
			<use xlink:href="#SVGID_1_"  style="overflow:visible;"/>
		</clipPath>
		
			<linearGradient id="SVGID_00000074444449844593419120000008657750221414050196_" gradientUnits="userSpaceOnUse" x1="1627.7872" y1="837.3165" x2="-115.7454" y2="1496.1675">
			<stop  offset="0" style="stop-color:#19B4FD"/>
			<stop  offset="1" style="stop-color:#102770"/>
		</linearGradient>
		
			<rect style="clip-path:url(#SVGID_00000031929566286786555040000001460529409527623347_);fill:url(#SVGID_00000074444449844593419120000008657750221414050196_);" width="1081.668" height="2496.115"/>
	</g>
	<g>
		<defs>
			<path id="SVGID_00000181785614453611753490000010277787412988284312_" d="M1026.399,0
				c-665.889,1681.319,55.269,2496.115,55.269,2496.115c154.457,86.644,327.184,169.865,520.267,247.017
				c-199.169-650.35-163.275-1204.769-43.085-1641.409C1752.584,397.797,2165.371,0,2165.371,0H1026.399z"/>
		</defs>
		<clipPath id="SVGID_00000042705069290207729610000014825829753870991519_">
			<use xlink:href="#SVGID_00000181785614453611753490000010277787412988284312_"  style="overflow:visible;"/>
		</clipPath>
		
			<linearGradient id="SVGID_00000103984203075151296050000015066099618305807247_" gradientUnits="userSpaceOnUse" x1="2527.7627" y1="1371.5659" x2="841.0104" y2="1371.5659">
			<stop  offset="0" style="stop-color:#19B4FD"/>
			<stop  offset="1" style="stop-color:#102770"/>
		</linearGradient>
		
			<rect x="360.511" style="clip-path:url(#SVGID_00000042705069290207729610000014825829753870991519_);fill:url(#SVGID_00000103984203075151296050000015066099618305807247_);" width="1804.86" height="2743.132"/>
	</g>
	<g>
		<defs>
			<path id="SVGID_00000147194545799668793190000006030162525452665776_" d="M1558.85,1101.723
				c-120.19,436.64-156.084,991.059,43.085,1641.409c242.758,96.999,517.683,184.396,828.922,256.868h1357.238
				C1576.185,2412.627,1558.85,1101.723,1558.85,1101.723"/>
		</defs>
		<clipPath id="SVGID_00000124841783556229038510000018362544395227120816_">
			<use xlink:href="#SVGID_00000147194545799668793190000006030162525452665776_"  style="overflow:visible;"/>
		</clipPath>
		
			<linearGradient id="SVGID_00000040560718970383515480000001271871652903400065_" gradientUnits="userSpaceOnUse" x1="3523.8386" y1="1917.151" x2="1565.0287" y2="2199.2615">
			<stop  offset="0" style="stop-color:#19B4FD"/>
			<stop  offset="1" style="stop-color:#102770"/>
		</linearGradient>
		
			<rect x="1402.766" y="1101.723" style="clip-path:url(#SVGID_00000124841783556229038510000018362544395227120816_);fill:url(#SVGID_00000040560718970383515480000001271871652903400065_);" width="2385.329" height="1898.277"/>
	</g>
	<g>
		<defs>
			<path id="SVGID_00000096772732698261070230000006726990660251521971_" d="M1081.668,2496.115
				C497.03,2168.207,174.122,1791.519,0,1511.039V3000h2430.857c-311.239-72.472-586.164-159.869-828.922-256.868
				C1408.852,2665.979,1236.126,2582.759,1081.668,2496.115"/>
		</defs>
		<clipPath id="SVGID_00000106862062025592886410000012409397813200467858_">
			<use xlink:href="#SVGID_00000096772732698261070230000006726990660251521971_"  style="overflow:visible;"/>
		</clipPath>
		
			<linearGradient id="SVGID_00000030464218259577641130000014536172202193907875_" gradientUnits="userSpaceOnUse" x1="1355.5713" y1="2176.0037" x2="-548.8282" y2="3256.5449">
			<stop  offset="0" style="stop-color:#19B4FD"/>
			<stop  offset="1" style="stop-color:#102770"/>
		</linearGradient>
		
			<rect y="1511.039" style="clip-path:url(#SVGID_00000106862062025592886410000012409397813200467858_);fill:url(#SVGID_00000030464218259577641130000014536172202193907875_);" width="2430.857" height="1488.961"/>
	</g>
	<defs>
		<filter id="Adobe_OpacityMaskFilter" filterUnits="userSpaceOnUse" x="1035.662" y="0" width="1129.709" height="2743.132">
			<feColorMatrix  type="matrix" values="1 0 0 0 0  0 1 0 0 0  0 0 1 0 0  0 0 0 1 0"/>
		</filter>
	</defs>
	
		<mask maskUnits="userSpaceOnUse" x="1035.662" y="0" width="1129.709" height="2743.132" id="SVGID_00000140014141814060610640000005402002512480337283_">
		<g style="filter:url(#Adobe_OpacityMaskFilter);">
			
				<linearGradient id="SVGID_00000167369770882095639090000005878989064998748601_" gradientUnits="userSpaceOnUse" x1="5472.3262" y1="-83.9048" x2="704.8162" y2="2073.6294" gradientTransform="matrix(1 0 0 1 17.511 -304.6436)">
				<stop  offset="0" style="stop-color:#FFFFFF"/>
				<stop  offset="1" style="stop-color:#000000"/>
			</linearGradient>
			
				<rect x="1035.649" style="fill:url(#SVGID_00000167369770882095639090000005878989064998748601_);" width="1129.716" height="2743.132"/>
		</g>
	</mask>
	
		<path style="mask:url(#SVGID_00000140014141814060610640000005402002512480337283_);fill-rule:evenodd;clip-rule:evenodd;fill:#19B4FD;" d="
		M1740.412,0c0,0-412.787,397.797-606.521,1101.723c-105.871,384.654-146.337,860.697-18.322,1413.186
		c145.722,79.885,307.282,156.671,486.366,228.223c-199.169-650.35-163.275-1204.769-43.085-1641.409
		C1752.584,397.797,2165.371,0,2165.371,0H1740.412z"/>
</g>
</svg>
